<svg id="flat" height="512" viewBox="0 0 64 64" width="512" xmlns="http://www.w3.org/2000/svg"><path d="m15 36-9.53846 3.97436a4 4 0 0 0 -2.46154 3.69231v11.33333h6v7h20v-7h6v-11.33333a4 4 0 0 0 -2.46154-3.69231l-9.53846-3.97436" fill="#47b164"/><path d="m3 55h6v7h-6z" fill="#ffd7a8"/><path d="m29 55h6v7h-6z" fill="#ffd7a8"/><path d="m8 48h2v14h-2z" fill="#42a45d"/><path d="m28 48h2v14h-2z" fill="#42a45d"/><rect fill="#eee" height="28" rx="2" width="30" x="31" y="33"/><path d="m23 31v6a4 4 0 0 1 -4 4 4 4 0 0 1 -4-4v-6z" fill="#f2cca0"/><path d="m30 10v13c0 5.07513-4.92487 10-11 10s-11-4.92487-11-10v-13z" fill="#ffd7a8"/><circle cx="14" cy="20" fill="#8c7558" r="1"/><path d="m12 15h4v2h-4z" fill="#626262"/><circle cx="24" cy="20" fill="#8c7558" r="1"/><path d="m22 15h4v2h-4z" fill="#626262"/><path d="m18 21h2v4h-2z" fill="#bf9f78"/><path d="m19 29a7.98713 7.98713 0 0 1 -4.123-1.14355l1.03125-1.7129a6.10945 6.10945 0 0 0 6.1836 0l1.03125 1.7129a7.98713 7.98713 0 0 1 -4.1231 1.14355z" fill="#bf9f78"/><path d="m8 13v-5a3 3 0 0 1 3-3h2a1 1 0 0 1 1 1 3 3 0 0 1 3-3h11a2 2 0 0 1 2 2v8l-2.26385-1.50923a2 2 0 0 0 -1.59447-.27619l-6.65661 1.66415a2 2 0 0 1 -.97014 0l-6.65661-1.66415a2 2 0 0 0 -1.59447.27619z" fill="#626262"/><rect fill="#d68114" height="4" rx="1" width="4" x="35" y="37"/><path d="m38 42h-2a2.0026 2.0026 0 0 1 -2-2v-2a2.0026 2.0026 0 0 1 2-2h2a2.0026 2.0026 0 0 1 2 2v2a2.0026 2.0026 0 0 1 -2 2zm-2-4v2h2.002l-.002-2z" fill="#ffaf45"/><g fill="#c8c8c8"><path d="m42 36h2v2h-2z"/><path d="m46 36h8v2h-8z"/><path d="m56 36h2v2h-2z"/><path d="m42 40h2v2h-2z"/><path d="m46 40h8v2h-8z"/><path d="m56 40h2v2h-2z"/></g><path d="m37 49h5a0 0 0 0 1 0 0v4a0 0 0 0 1 0 0h-5a1 1 0 0 1 -1-1v-2a1 1 0 0 1 1-1z" fill="#e6c762"/><path d="m42.60608 47.74025 6.20526-2.6594a1.00013 1.00013 0 0 1 .39392-.08085h2.79474a1 1 0 0 1 1 1v10a1 1 0 0 1 -1 1h-2.79474a1.00013 1.00013 0 0 1 -.39392-.08085l-6.20526-2.6594a1 1 0 0 1 -.60608-.91915v-4.6812a1 1 0 0 1 .60608-.91915z" fill="#ffdd6d"/><path d="m53 48h2a2 2 0 0 1 2 2v2a2 2 0 0 1 -2 2h-2a0 0 0 0 1 0 0v-6a0 0 0 0 1 0 0z" fill="#e6c762"/><path d="m37 53h2v5h-2z" fill="#ccb157"/></svg>