<?xml version="1.0" encoding="iso-8859-1"?>
<!-- Generator: Adobe Illustrator 19.0.0, SVG Export Plug-In . SVG Version: 6.00 Build 0)  -->
<svg version="1.1" id="Capa_1" xmlns="http://www.w3.org/2000/svg" xmlns:xlink="http://www.w3.org/1999/xlink" x="0px" y="0px"
	 viewBox="0 0 512 512" style="enable-background:new 0 0 512 512;" xml:space="preserve">
<polygon style="fill:#D3D3D3;" points="476.69,61.793 476.69,97.103 406.069,97.103 406.069,61.793 423.724,61.793 459.035,61.793 
	"/>
<polygon style="fill:#F5F5F5;" points="512,61.793 512,238.345 486.312,238.345 476.69,238.345 432.552,238.345 370.759,238.345 
	370.759,141.241 370.759,61.793 406.069,61.793 406.069,97.103 476.69,97.103 476.69,61.793 "/>
<g>
	<path style="fill:#FFCBA8;" d="M57.115,238.345h22.334c14.627,0,26.483,11.855,26.483,26.483v44.138H52.966V291.31H26.483
		C11.855,291.31,0,279.455,0,264.828v-0.794c-0.018-14.168,11.449-25.671,25.618-25.688c0.026,0,0.044,0,0.071,0H57.115z"/>
	<path style="fill:#FFCBA8;" d="M512,264.033v0.794c0,14.627-11.855,26.483-26.483,26.483h-26.483v17.655h-52.966v-44.138
		c0-14.627,11.855-26.483,26.483-26.483h53.76c14.168-0.018,25.671,11.449,25.688,25.618C512,263.989,512,264.007,512,264.033z"/>
</g>
<g>
	<circle style="fill:#DAEFF6;" cx="291.31" cy="123.586" r="26.483"/>
	<circle style="fill:#DAEFF6;" cx="220.69" cy="123.586" r="26.483"/>
</g>
<g>
	<path style="fill:#FFCBA8;" d="M365.55,128.794c3.354,3.266,5.235,7.759,5.208,12.447c-0.026,9.737-7.918,17.629-17.655,17.655
		h-17.655v-35.31h17.655C357.791,123.56,362.284,125.44,365.55,128.794z"/>
	<path style="fill:#FFCBA8;" d="M176.552,123.586v35.31h-17.655c-9.719-0.071-17.585-7.936-17.655-17.655
		c0.026-9.737,7.918-17.629,17.655-17.655H176.552z"/>
	<path style="fill:#FFCBA8;" d="M291.31,247.172v17.655c0,19.5-15.81,35.31-35.31,35.31c-19.5,0-35.31-15.81-35.31-35.31v-17.655
		l1.677-4.502c7.927,2.993,16.331,4.52,24.806,4.502h17.655c8.474,0.018,16.878-1.51,24.806-4.502L291.31,247.172z"/>
	<path style="fill:#FFCBA8;" d="M335.448,158.897v17.655c0,39-31.62,70.621-70.621,70.621h-17.655c-39,0-70.621-31.62-70.621-70.621
		v-70.621l26.483-44.138h105.931l26.483,44.138V158.897z M317.793,123.586c0-14.627-11.855-26.483-26.483-26.483
		s-26.483,11.855-26.483,26.483c0,14.627,11.855,26.483,26.483,26.483S317.793,138.214,317.793,123.586z M247.172,123.586
		c0-14.627-11.855-26.483-26.483-26.483c-14.627,0-26.483,11.855-26.483,26.483c0,14.627,11.855,26.483,26.483,26.483
		C235.317,150.069,247.172,138.214,247.172,123.586z"/>
</g>
<g>
	<path style="fill:#A55F39;" d="M406.069,344.276v-35.31h52.966v150.069c0,29.255-23.711,52.966-52.966,52.966V344.276z"/>
	<path style="fill:#A55F39;" d="M406.069,353.103V512h-44.138V370.759L335.89,266.681
		C376.779,275.271,406.051,311.322,406.069,353.103z"/>
	<polygon style="fill:#A55F39;" points="361.931,423.724 361.931,512 308.966,512 	"/>
	<polygon style="fill:#A55F39;" points="361.931,370.759 361.931,423.724 308.966,397.241 	"/>
</g>
<path style="fill:#331609;" d="M335.448,52.966v52.966l-26.483-44.138H203.035l-26.483,44.138V52.966
	C176.552,23.711,200.263,0,229.517,0h61.793c24.373,0,44.138,19.765,44.138,44.138V52.966z"/>
<g>
	<polygon style="fill:#FFE5AD;" points="308.966,397.241 308.966,512 282.483,512 264.828,344.276 282.483,326.621 284.69,323.972 
		308.966,344.276 	"/>
	<path style="fill:#FFE5AD;" d="M308.966,264.828v79.448l-24.276-20.303L256,300.138c19.474,0.026,35.284-15.748,35.31-35.222
		c0-0.026,0-0.062,0-0.088H308.966z"/>
</g>
<g>
	<polygon style="fill:#FF2904;" points="284.69,323.972 282.483,326.621 264.828,344.276 256,353.103 247.172,344.276 
		229.517,326.621 227.31,323.972 256,300.138 	"/>
	<polygon style="fill:#FF2904;" points="264.828,344.276 282.483,512 229.517,512 247.172,344.276 256,353.103 	"/>
</g>
<g>
	<path style="fill:#FFE5AD;" d="M256,300.138l-28.69,23.835l-24.276,20.303v-79.448h17.655
		C220.69,284.328,236.5,300.138,256,300.138z"/>
	<polygon style="fill:#FFE5AD;" points="247.172,344.276 229.517,512 203.035,512 203.035,397.241 203.035,344.276 227.31,323.972 
		229.517,326.621 	"/>
</g>
<g>
	<polygon style="fill:#A55F39;" points="150.069,423.724 203.035,512 150.069,512 	"/>
	<polygon style="fill:#A55F39;" points="203.035,397.241 150.069,423.724 150.069,370.759 	"/>
	<path style="fill:#A55F39;" d="M176.11,266.681l-26.041,104.077V512h-44.138V353.103
		C105.949,311.322,135.221,275.271,176.11,266.681z"/>
	<path style="fill:#A55F39;" d="M105.931,344.276V512c-29.255,0-52.966-23.711-52.966-52.966V308.966h52.966V344.276z"/>
</g>
<g>
	<rect x="406.069" y="335.448" style="fill:#6F3114;" width="26.483" height="17.655"/>
	<rect x="79.448" y="335.448" style="fill:#6F3114;" width="26.483" height="17.655"/>
</g>
<g>
	<rect x="141.241" y="370.759" style="fill:#8C5130;" width="17.655" height="141.241"/>
	<rect x="353.103" y="370.759" style="fill:#8C5130;" width="17.655" height="141.241"/>
</g>
<g>
	<path style="fill:#454545;" d="M220.69,158.897c-19.5,0-35.31-15.81-35.31-35.31s15.81-35.31,35.31-35.31s35.31,15.81,35.31,35.31
		S240.19,158.897,220.69,158.897z M220.69,105.931c-9.754,0-17.655,7.901-17.655,17.655s7.901,17.655,17.655,17.655
		c9.754,0,17.655-7.901,17.655-17.655S230.444,105.931,220.69,105.931L220.69,105.931z"/>
	<path style="fill:#454545;" d="M291.31,158.897c-19.5,0-35.31-15.81-35.31-35.31s15.81-35.31,35.31-35.31s35.31,15.81,35.31,35.31
		S310.81,158.897,291.31,158.897z M291.31,105.931c-9.754,0-17.655,7.901-17.655,17.655s7.901,17.655,17.655,17.655
		s17.655-7.901,17.655-17.655S301.065,105.931,291.31,105.931L291.31,105.931z"/>
</g>
<g>
	<rect x="397.241" y="123.586" style="fill:#B5B5B5;" width="88.276" height="17.655"/>
	<rect x="397.241" y="158.897" style="fill:#B5B5B5;" width="88.276" height="17.655"/>
	<rect x="397.241" y="194.207" style="fill:#B5B5B5;" width="88.276" height="17.655"/>
</g>
<g>
	<path style="fill:#454545;" d="M467.862,61.793h-17.655V44.138h-17.655v17.655h-17.655V35.31c0-4.873,3.955-8.828,8.828-8.828
		h35.31c4.873,0,8.828,3.955,8.828,8.828V61.793z"/>
	
		<rect x="44.145" y="140.652" transform="matrix(-0.9912 0.1322 -0.1322 -0.9912 132.9026 406.0376)" style="fill:#454545;" width="17.655" height="133.558"/>
</g>
<path style="fill:#EBB691;" d="M256,213.672h-0.071c-12.27,0.026-24.038-4.873-32.662-13.594l12.518-12.447
	c5.323,5.385,12.579,8.404,20.145,8.386l0,0c7.618,0.026,14.927-3.001,20.303-8.404l12.482,12.482
	C280.055,208.808,268.279,213.689,256,213.672z"/>
<g>
	<path style="fill:#6F3114;" d="M335.89,266.681l26.041,104.077l-52.966,26.483V264.828h8.828
		C323.875,264.819,329.94,265.437,335.89,266.681z"/>
	<polygon style="fill:#6F3114;" points="361.931,423.724 308.966,512 308.966,397.241 	"/>
	<polygon style="fill:#6F3114;" points="203.035,397.241 203.035,512 150.069,423.724 	"/>
	<path style="fill:#6F3114;" d="M203.035,344.276v52.966l-52.966-26.483l26.041-104.077c5.95-1.245,12.014-1.871,18.097-1.854h8.828
		V344.276z"/>
</g>
<g>
</g>
<g>
</g>
<g>
</g>
<g>
</g>
<g>
</g>
<g>
</g>
<g>
</g>
<g>
</g>
<g>
</g>
<g>
</g>
<g>
</g>
<g>
</g>
<g>
</g>
<g>
</g>
<g>
</g>
</svg>
