<svg id="Icon_Set" enable-background="new 0 0 64 64" height="512" viewBox="0 0 64 64" width="512" xmlns="http://www.w3.org/2000/svg"><path d="m8 51h40v9h-40z" fill="#99a2b9"/><path d="m48 60.5h-40c-.276 0-.5-.224-.5-.5v-9c0-.276.224-.5.5-.5h40c.276 0 .5.224.5.5v9c0 .276-.224.5-.5.5zm-39.5-1h39v-8h-39z" fill="#212a41"/><path d="m51 51h-46c-.552 0-1-.448-1-1v-1c0-.552.448-1 1-1h46c.552 0 1 .448 1 1v1c0 .552-.448 1-1 1z" fill="#99a2b9"/><path d="m51 51.5h-46c-.827 0-1.5-.673-1.5-1.5v-1c0-.827.673-1.5 1.5-1.5h46c.827 0 1.5.673 1.5 1.5v1c0 .827-.673 1.5-1.5 1.5zm-46-3c-.276 0-.5.225-.5.5v1c0 .275.224.5.5.5h46c.276 0 .5-.225.5-.5v-1c0-.275-.224-.5-.5-.5z" fill="#212a41"/><path d="m59 51h-46c-.552 0-1-.448-1-1v-1c0-.552.448-1 1-1h46c.552 0 1 .448 1 1v1c0 .552-.448 1-1 1z" fill="#b7c0d7"/><path d="m59 51.5h-46c-.827 0-1.5-.673-1.5-1.5v-1c0-.827.673-1.5 1.5-1.5h46c.827 0 1.5.673 1.5 1.5v1c0 .827-.673 1.5-1.5 1.5zm-46-3c-.276 0-.5.225-.5.5v1c0 .275.224.5.5.5h46c.276 0 .5-.225.5-.5v-1c0-.275-.224-.5-.5-.5z" fill="#212a41"/><circle cx="42" cy="17" fill="#e0c8a4" r="3"/><path d="m42 20.5c-1.93 0-3.5-1.57-3.5-3.5s1.57-3.5 3.5-3.5 3.5 1.57 3.5 3.5-1.57 3.5-3.5 3.5zm0-6c-1.378 0-2.5 1.121-2.5 2.5s1.122 2.5 2.5 2.5 2.5-1.121 2.5-2.5-1.122-2.5-2.5-2.5z" fill="#212a41"/><path d="m36 6h-8c-3.314 0-6 2.686-6 6v2c-1.657 0-3 1.343-3 3s1.343 3 3 3v2c0 3.314 2.686 6 6 6h8c3.314 0 6-2.686 6-6v-10c0-3.314-2.686-6-6-6z" fill="#e0c8a4"/><path d="m36 28.5h-8c-3.584 0-6.5-2.916-6.5-6.5v-1.535c-1.694-.244-3-1.705-3-3.465s1.306-3.221 3-3.465v-1.535c0-3.584 2.916-6.5 6.5-6.5h8c3.584 0 6.5 2.916 6.5 6.5v10c0 3.584-2.916 6.5-6.5 6.5zm-8-22c-3.033 0-5.5 2.468-5.5 5.5v2c0 .276-.224.5-.5.5-1.378 0-2.5 1.121-2.5 2.5s1.122 2.5 2.5 2.5c.276 0 .5.224.5.5v2c0 3.032 2.467 5.5 5.5 5.5h8c3.033 0 5.5-2.468 5.5-5.5v-10c0-3.032-2.467-5.5-5.5-5.5z" fill="#212a41"/><path d="m28 26.5c-2.481 0-4.5-2.019-4.5-4.5 0-.276.224-.5.5-.5s.5.224.5.5c0 1.93 1.57 3.5 3.5 3.5.276 0 .5.224.5.5s-.224.5-.5.5z" fill="#fee6c2"/><path d="m36 26.5c-.276 0-.5-.224-.5-.5s.224-.5.5-.5c1.93 0 3.5-1.57 3.5-3.5 0-.276.224-.5.5-.5s.5.224.5.5c0 2.481-2.019 4.5-4.5 4.5z" fill="#c2aa86"/><path d="m37 31h-18c-4.418 0-8 3.582-8 8v9h34v-9c0-4.418-3.582-8-8-8z" fill="#005b8a"/><path d="m45 48.5h-34c-.276 0-.5-.224-.5-.5v-9c0-4.687 3.813-8.5 8.5-8.5h18c4.687 0 8.5 3.813 8.5 8.5v9c0 .276-.224.5-.5.5zm-33.5-1h33v-8.5c0-4.136-3.364-7.5-7.5-7.5h-18c-4.136 0-7.5 3.364-7.5 7.5z" fill="#212a41"/><path d="m19 39v9h34v-9c0-4.418-3.582-8-8-8h-18c-4.418 0-8 3.582-8 8z" fill="#e0e0e0"/><path d="m53 48.5h-34c-.276 0-.5-.224-.5-.5v-9c0-4.687 3.813-8.5 8.5-8.5h18c4.687 0 8.5 3.813 8.5 8.5v9c0 .276-.224.5-.5.5zm-33.5-1h33v-8.5c0-4.136-3.364-7.5-7.5-7.5h-18c-4.136 0-7.5 3.364-7.5 7.5z" fill="#212a41"/><path d="m28 28h8v3h-8z" fill="#e8d2a8"/><path d="m36 31.5h-8c-.276 0-.5-.224-.5-.5v-3c0-.276.224-.5.5-.5h8c.276 0 .5.224.5.5v3c0 .276-.224.5-.5.5zm-7.5-1h7v-2h-7z" fill="#212a41"/><path d="m36 46v2h-17v-9c0-4.418 3.582-8 8-8h4z" fill="#0079a8"/><path d="m36 48.5h-17c-.276 0-.5-.224-.5-.5v-9c0-4.687 3.813-8.5 8.5-8.5h4c.215 0 .406.138.474.342l5 15c.017.051.026.104.026.158v2c0 .276-.224.5-.5.5zm-16.5-1h16v-1.419l-4.86-14.581h-3.64c-4.136 0-7.5 3.364-7.5 7.5z" fill="#212a41"/><path d="m13 46.5c-.276 0-.5-.224-.5-.5v-7c0-3.584 2.916-6.5 6.5-6.5.276 0 .502.224.502.5s-.221.5-.498.5h-.004c-3.033 0-5.5 2.468-5.5 5.5v7c0 .276-.224.5-.5.5z" fill="#0079a8"/><path d="m36 46v2h17v-9c0-4.418-3.582-8-8-8h-4z" fill="#0079a8"/><path d="m53 48.5h-17c-.276 0-.5-.224-.5-.5v-2c0-.054.009-.107.026-.158l5-15c.068-.204.259-.342.474-.342h4c4.687 0 8.5 3.813 8.5 8.5v9c0 .276-.224.5-.5.5zm-16.5-1h16v-8.5c0-4.136-3.364-7.5-7.5-7.5h-3.64l-4.86 14.581z" fill="#212a41"/><path d="m21 46.5c-.276 0-.5-.224-.5-.5v-7c0-3.584 2.916-6.5 6.5-6.5.276 0 .5.224.5.5s-.224.5-.5.5c-3.033 0-5.5 2.468-5.5 5.5v7c0 .276-.224.5-.5.5z" fill="#1e97c6"/><path d="m51 46.5c-.276 0-.5-.224-.5-.5v-7c0-3.032-2.467-5.5-5.5-5.5-.276 0-.5-.224-.5-.5s.224-.5.5-.5c3.584 0 6.5 2.916 6.5 6.5v7c0 .276-.224.5-.5.5z" fill="#005b8a"/><path d="m31 31-4 4 9 11z" fill="#0079a8"/><path d="m36 46.5c-.146 0-.29-.063-.388-.184l-9-11c-.163-.198-.148-.488.034-.67l4-4c.123-.122.3-.176.468-.133.169.039.305.164.359.328l5 15c.077.229-.021.479-.233.596-.074.042-.157.063-.24.063zm-8.327-11.467 6.993 8.547-3.885-11.654z" fill="#212a41"/><path d="m41 31 4 4-9 11z" fill="#0079a8"/><path d="m36 46.5c-.082 0-.165-.021-.241-.062-.211-.116-.31-.367-.233-.596l5-15c.055-.164.19-.289.359-.328.169-.043.346.011.468.133l4 4c.182.182.196.472.034.67l-9 11c-.098.12-.241.183-.387.183zm5.219-14.574-3.886 11.654 6.993-8.547z" fill="#212a41"/><path d="m37 35h-2l-1.77 2.69 2.77 8.31 2.701-8.104z" fill="#d32e5e"/><path d="m36 46.5c-.215 0-.406-.138-.474-.342l-2.77-8.31c-.049-.146-.028-.305.057-.433l1.77-2.69c.092-.14.249-.225.417-.225h2c.177 0 .341.094.431.247l1.701 2.896c.073.124.089.274.043.411l-2.701 8.104c-.068.204-.259.342-.474.342zm-2.219-8.737 2.219 6.656 2.155-6.465-1.441-2.454h-1.444z" fill="#212a41"/><path d="m37 35.5h-2c-.189 0-.362-.107-.447-.276l-2-4c-.078-.155-.069-.339.022-.486s.252-.238.425-.238h6c.173 0 .334.09.425.237s.1.331.022.486l-2 4c-.085.17-.258.277-.447.277zm-1.691-1h1.382l1.5-3h-4.382z" fill="#212a41"/><path d="m39 11h-17v-3c0-2.209 1.791-4 4-4h17v3c0 2.209-1.791 4-4 4z" fill="#f9ac2f"/><path d="m39 11.5h-17c-.276 0-.5-.224-.5-.5v-3c0-2.481 2.019-4.5 4.5-4.5h17c.276 0 .5.224.5.5v3c0 2.481-2.019 4.5-4.5 4.5zm-16.5-1h16.5c1.93 0 3.5-1.57 3.5-3.5v-2.5h-16.5c-1.93 0-3.5 1.57-3.5 3.5z" fill="#212a41"/><path d="m39 9.5c-.276 0-.5-.224-.5-.5s.224-.5.5-.5c.827 0 1.5-.673 1.5-1.5v-1c0-.276.224-.5.5-.5s.5.224.5.5v1c0 1.379-1.122 2.5-2.5 2.5z" fill="#db8e11"/><path d="m21 14h-1v-6c0-1.105.895-2 2-2h3v4c0 2.209-1.791 4-4 4z" fill="#db8e11"/><path d="m21 14.5h-1c-.276 0-.5-.224-.5-.5v-6c0-1.379 1.122-2.5 2.5-2.5h3c.276 0 .5.224.5.5v4c0 2.481-2.019 4.5-4.5 4.5zm-.5-1h.5c1.93 0 3.5-1.57 3.5-3.5v-3.5h-2.5c-.827 0-1.5.673-1.5 1.5z" fill="#212a41"/><path d="m22 12.231c-.276 0-.5-.224-.5-.5v-3.731c0-.276.224-.5.5-.5s.5.224.5.5v3.731c0 .277-.224.5-.5.5z" fill="#f9ac2f"/><g fill="#212a41"><path d="m22 20.5c-.935 0-1.814-.364-2.475-1.025s-1.025-1.539-1.025-2.475.364-1.814 1.025-2.475c1.321-1.322 3.628-1.322 4.949 0 .195.195.195.512 0 .707s-.512.195-.707 0c-.944-.945-2.591-.945-3.535 0-.472.472-.732 1.1-.732 1.768s.26 1.296.732 1.768c.944.945 2.591.945 3.535 0 .195-.195.512-.195.707 0s.195.512 0 .707c-.66.661-1.539 1.025-2.474 1.025z"/><path d="m37 16.5h-3c-.276 0-.5-.224-.5-.5s.224-.5.5-.5h3c.276 0 .5.224.5.5s-.224.5-.5.5z"/><path d="m28 15.5h-3.879c-.276 0-.5-.224-.5-.5s.224-.5.5-.5h3.879c.276 0 .5.224.5.5s-.224.5-.5.5z"/></g><circle cx="31" cy="16" fill="#e0e0e0" r="3"/><path d="m31 19.5c-1.93 0-3.5-1.57-3.5-3.5s1.57-3.5 3.5-3.5 3.5 1.57 3.5 3.5-1.57 3.5-3.5 3.5zm0-6c-1.378 0-2.5 1.121-2.5 2.5s1.122 2.5 2.5 2.5 2.5-1.121 2.5-2.5-1.122-2.5-2.5-2.5z" fill="#212a41"/><circle cx="40" cy="16" fill="#e0e0e0" r="3"/><path d="m40 19.5c-1.93 0-3.5-1.57-3.5-3.5s1.57-3.5 3.5-3.5 3.5 1.57 3.5 3.5-1.57 3.5-3.5 3.5zm0-6c-1.378 0-2.5 1.121-2.5 2.5s1.122 2.5 2.5 2.5 2.5-1.121 2.5-2.5-1.122-2.5-2.5-2.5z" fill="#212a41"/><path d="m16 51h40v9h-40z" fill="#b7c0d7"/><path d="m56 60.5h-40c-.276 0-.5-.224-.5-.5v-9c0-.276.224-.5.5-.5h40c.276 0 .5.224.5.5v9c0 .276-.224.5-.5.5zm-39.5-1h39v-8h-39z" fill="#212a41"/><path d="m54 58.5c-.276 0-.5-.224-.5-.5v-5c0-.276.224-.5.5-.5s.5.224.5.5v5c0 .276-.224.5-.5.5z" fill="#99a2b9"/><path d="m18 58.5c-.276 0-.5-.224-.5-.5v-5c0-.276.224-.5.5-.5s.5.224.5.5v5c0 .276-.224.5-.5.5z" fill="#d5def5"/><path d="m56 57-4-2-4 2v-8h8z" fill="#e0e0e0"/><path d="m56 57.5c-.077 0-.153-.018-.224-.053l-3.776-1.888-3.776 1.889c-.156.076-.339.067-.486-.021-.148-.093-.238-.254-.238-.427v-8c0-.276.224-.5.5-.5h8c.276 0 .5.224.5.5v8c0 .173-.09.334-.237.426-.08.049-.172.074-.263.074zm-4-3c.077 0 .153.018.224.053l3.276 1.639v-6.692h-7v6.691l3.276-1.639c.071-.034.147-.052.224-.052z" fill="#212a41"/><circle cx="52" cy="43" fill="#f9ac2f" r="8"/><path d="m52 51.5c-4.687 0-8.5-3.813-8.5-8.5s3.813-8.5 8.5-8.5 8.5 3.813 8.5 8.5-3.813 8.5-8.5 8.5zm0-16c-4.136 0-7.5 3.364-7.5 7.5s3.364 7.5 7.5 7.5 7.5-3.364 7.5-7.5-3.364-7.5-7.5-7.5z" fill="#212a41"/><circle cx="52" cy="43" fill="#f9ac2f" r="6"/><path d="m52 49.5c-3.584 0-6.5-2.916-6.5-6.5s2.916-6.5 6.5-6.5 6.5 2.916 6.5 6.5-2.916 6.5-6.5 6.5zm0-12c-3.033 0-5.5 2.468-5.5 5.5s2.467 5.5 5.5 5.5 5.5-2.468 5.5-5.5-2.467-5.5-5.5-5.5z" fill="#212a41"/><path d="m50.5 46.5c-.276 0-.5-.224-.5-.5v-6c0-.276.224-.5.5-.5h2c1.378 0 2.5 1.121 2.5 2.5s-1.122 2.5-2.5 2.5h-1c-.276 0-.5-.224-.5-.5v2c0 .276-.224.5-.5.5zm.5-6v3.5c0-.276.224-.5.5-.5h1c.827 0 1.5-.673 1.5-1.5s-.673-1.5-1.5-1.5z" fill="#212a41"/></svg>