<svg id="Layer_35" enable-background="new 0 0 64 64" height="512" viewBox="0 0 64 64" width="512" xmlns="http://www.w3.org/2000/svg"><path d="m55.47 53.7c-1.61-2.41-3.93-4.34-6.73-5.49l-7.76-3.17-3.98 7.96-3.5-3.5-1.5-1.5-5 5-3.98-7.96-7.76 3.17c-5.6 2.29-9.26 7.74-9.26 13.79h10 16 16 10c0-3.02-.92-5.9-2.53-8.3z" fill="#cf9e76"/><path d="m32 48-5 5-3.98-7.96 2.49-1.02c.57-.24 1.07-.59 1.47-1.04z" fill="#e6e9ed"/><path d="m40.98 45.04-3.98 7.96-3.5-3.5-1.5-1.5 5.02-5.02c.4.45.9.8 1.47 1.04z" fill="#e6e9ed"/><path d="m48 18v8c0-1.1-.45-2.1-1.17-2.83-.73-.72-1.73-1.17-2.83-1.17v-4.5c0-2.49-2.01-4.5-4.5-4.5-.97 0-1.92.32-2.7.9l-1.73 1.3c-.7.52-1.54.8-2.4.8h-6.67c-3.24 0-5.89 2.58-5.99 5.8-.01.06-.01.13-.01.2-2.21 0-4 1.79-4 4v-8c0-8.84 7.16-16 16-16 4.42 0 8.42 1.79 11.32 4.68 2.89 2.9 4.68 6.9 4.68 11.32z" fill="#fcd770"/><g fill="#f0d0b4"><path d="m36 40.31c0 1.01.38 1.95 1.02 2.67l-5.02 5.02-5.02-5.02c.64-.72 1.02-1.66 1.02-2.67v-1.24c1.23.8 2.57 1.45 4 1.93 1.43-.48 2.77-1.13 4-1.93z"/><path d="m46.83 23.17c.72.73 1.17 1.73 1.17 2.83 0 2.21-1.79 4-4 4h-.94c.61-1.78.94-3.69.94-5.65v-.35-2c1.1 0 2.1.45 2.83 1.17z"/><path d="m36 20h6c1.1 0 2 .9 2 2v-4.5c0-2.49-2.01-4.5-4.5-4.5-.97 0-1.92.32-2.7.9l-1.73 1.3c-.7.52-1.54.8-2.4.8h-6.67c-3.24 0-5.89 2.58-5.99 5.8.1-1.01.96-1.8 1.99-1.8h6c1.1 0 2 .9 2 2v2c0 1.1-.9 2-2 2h-6c-1.1 0-2-.9-2-2v.35c0 1.96.33 3.87.94 5.65 1.26 3.72 3.74 6.92 7.06 9.07 1.23.8 2.57 1.45 4 1.93 1.43-.48 2.77-1.13 4-1.93 1.84-1.19 3.42-2.71 4.69-4.46 1.01-1.4 1.81-2.96 2.37-4.61.61-1.78.94-3.69.94-5.65v-.35c0 1.1-.9 2-2 2h-6c-1.1 0-2-.9-2-2v-2c0-1.1.9-2 2-2z"/><path d="m20 24v.35c0 1.96.33 3.87.94 5.65h-.94c-1.1 0-2.1-.45-2.83-1.17-.72-.73-1.17-1.73-1.17-2.83 0-2.21 1.79-4 4-4z"/></g><path d="m44 22v2c0 1.1-.9 2-2 2h-6c-1.1 0-2-.9-2-2v-2c0-1.1.9-2 2-2h6c1.1 0 2 .9 2 2z" fill="#69d6f4"/><path d="m30 22v2c0 1.1-.9 2-2 2h-6c-1.1 0-2-.9-2-2v-2c0-.07 0-.14.01-.2.1-1.01.96-1.8 1.99-1.8h6c1.1 0 2 .9 2 2z" fill="#69d6f4"/><path d="m36 32h-2c0 1.103-.897 2-2 2s-2-.897-2-2h-2c0 2.206 1.794 4 4 4s4-1.794 4-4z"/><path d="m49.123 47.289-10.259-4.198c-1.133-.463-1.864-1.553-1.864-2.777v-.718c3.077-2.126 5.427-5.126 6.759-8.597h.241c2.757 0 5-2.243 5-5v-8c0-9.374-7.626-17-17-17s-17 7.627-17 17.001v8c0 2.757 2.243 5 5 5h.241c1.332 3.471 3.682 6.47 6.759 8.597v.718c0 1.224-.731 2.313-1.864 2.776l-10.259 4.197c-6 2.455-9.877 8.23-9.877 14.712v1h54v-1c0-6.482-3.877-12.257-9.877-14.711zm-11.016-2.347 1.497.613-2.878 5.757-3.312-3.312 3.651-3.651c.321.232.664.439 1.042.593zm-4.923-23.942h-2.369c-.414-1.161-1.514-2-2.816-2h-5.974c.914-1.207 2.348-2 3.974-2h6.667c1.075 0 2.14-.355 3-1l1.733-1.3c.603-.451 1.348-.7 2.1-.7 1.93 0 3.5 1.57 3.5 3.5v1.684c-.313-.112-.647-.184-.999-.184h-6c-1.302 0-2.402.839-2.816 2zm-12.184 1c0-.551.449-1 1-1h6c.551 0 1 .449 1 1v2c0 .551-.449 1-1 1h-6c-.551 0-1-.449-1-1zm14 0c0-.551.449-1 1-1h6c.551 0 1 .449 1 1v2c0 .551-.449 1-1 1h-6c-.551 0-1-.449-1-1zm9.414 6.958c.379-1.482.586-3.025.586-4.607v-.351-.816c1.161.414 2 1.514 2 2.816 0 1.512-1.129 2.754-2.586 2.958zm-12.414-25.958c8.271 0 15 6.729 15 15v4.026c-.584-.442-1.257-.773-2-.924v-3.602c0-3.033-2.467-5.5-5.5-5.5-1.182 0-2.354.391-3.3 1.1l-1.733 1.3c-.516.387-1.156.6-1.801.6h-6.666c-3.552 0-6.488 2.662-6.935 6.094-.768.146-1.465.476-2.065.931v-4.025c0-8.271 6.729-15 15-15zm-15 23c0-1.302.839-2.402 2-2.816v.816.351c0 1.582.207 3.125.586 4.607-1.457-.204-2.586-1.446-2.586-2.958zm4.195.876c.258.073.524.124.805.124h6c1.654 0 3-1.346 3-3v-1h2v1c0 1.654 1.346 3 3 3h6c.281 0 .547-.051.805-.124-.913 5.957-5.015 11.007-10.805 13.066-5.79-2.059-9.892-7.109-10.805-13.066zm10.489 15.073.316.105.316-.105c.947-.316 1.855-.702 2.719-1.152.072.748.306 1.452.678 2.076l-3.713 3.713-3.714-3.714c.372-.624.606-1.328.678-2.076.864.45 1.773.837 2.72 1.153zm-5.791 2.993c.378-.155.721-.362 1.042-.594l3.651 3.652-3.312 3.312-2.878-5.757zm23.107 16.058v-6h-2v6h-14v-2h-2v2h-14v-6h-2v6h-7.965c.373-5.255 3.665-9.842 8.599-11.861l6.905-2.825 4.187 8.374 5.274-5.274 5.274 5.274 4.187-8.374 6.906 2.825c4.934 2.018 8.226 6.605 8.599 11.86h-7.966z"/><path d="m31 51h2v2h-2z"/><path d="m31 55h2v2h-2z"/></svg>